<svg xmlns="http://www.w3.org/2000/svg" style="display:none">

<!-- DHARMA WHEEL - used as section dividers -->
<symbol id="ico-dharma" viewBox="0 0 64 64">
  <circle cx="32" cy="32" r="28" fill="none" stroke="currentColor" stroke-width="2.5"/>
  <circle cx="32" cy="32" r="8" fill="none" stroke="currentColor" stroke-width="2"/>
  <circle cx="32" cy="32" r="3" fill="currentColor"/>
  <line x1="32" y1="4" x2="32" y2="24" stroke="currentColor" stroke-width="2"/>
  <line x1="32" y1="40" x2="32" y2="60" stroke="currentColor" stroke-width="2"/>
  <line x1="4" y1="32" x2="24" y2="32" stroke="currentColor" stroke-width="2"/>
  <line x1="40" y1="32" x2="60" y2="32" stroke="currentColor" stroke-width="2"/>
  <line x1="12.2" y1="12.2" x2="26.3" y2="26.3" stroke="currentColor" stroke-width="2"/>
  <line x1="37.7" y1="37.7" x2="51.8" y2="51.8" stroke="currentColor" stroke-width="2"/>
  <line x1="51.8" y1="12.2" x2="37.7" y2="26.3" stroke="currentColor" stroke-width="2"/>
  <line x1="26.3" y1="37.7" x2="12.2" y2="51.8" stroke="currentColor" stroke-width="2"/>
</symbol>

<!-- BUTTER LAMP / CANDLE - for 點燈祈福 -->
<symbol id="ico-lamp" viewBox="0 0 64 64">
  <ellipse cx="32" cy="52" rx="16" ry="5" fill="none" stroke="currentColor" stroke-width="2"/>
  <path d="M16 52 V42 Q16 36 24 34 L24 28 Q24 24 32 22 Q40 24 40 28 L40 34 Q48 36 48 42 V52" fill="none" stroke="currentColor" stroke-width="2"/>
  <path d="M32 22 Q30 14 32 6 Q34 14 32 22Z" fill="currentColor" opacity="0.9"/>
  <path d="M32 6 Q28 12 26 16 Q30 12 32 6 Q34 12 38 16 Q36 12 32 6Z" fill="currentColor" opacity="0.5"/>
  <circle cx="32" cy="10" r="3" fill="currentColor" opacity="0.3"/>
</symbol>

<!-- PRAYER BEADS / MALA - for 加持法物 and quotes -->
<symbol id="ico-mala" viewBox="0 0 64 64">
  <path d="M32 8 Q52 8 56 28 Q60 48 40 56 L32 60 L24 56 Q4 48 8 28 Q12 8 32 8Z" fill="none" stroke="currentColor" stroke-width="1.5"/>
  <circle cx="32" cy="8" r="3.5" fill="currentColor"/>
  <circle cx="42" cy="10" r="2.5" fill="none" stroke="currentColor" stroke-width="1.5"/>
  <circle cx="50" cy="16" r="2.5" fill="none" stroke="currentColor" stroke-width="1.5"/>
  <circle cx="54" cy="24" r="2.5" fill="none" stroke="currentColor" stroke-width="1.5"/>
  <circle cx="56" cy="33" r="2.5" fill="none" stroke="currentColor" stroke-width="1.5"/>
  <circle cx="53" cy="42" r="2.5" fill="none" stroke="currentColor" stroke-width="1.5"/>
  <circle cx="47" cy="49" r="2.5" fill="none" stroke="currentColor" stroke-width="1.5"/>
  <circle cx="40" cy="55" r="2.5" fill="none" stroke="currentColor" stroke-width="1.5"/>
  <circle cx="32" cy="58" r="3.5" fill="currentColor"/>
  <circle cx="24" cy="55" r="2.5" fill="none" stroke="currentColor" stroke-width="1.5"/>
  <circle cx="17" cy="49" r="2.5" fill="none" stroke="currentColor" stroke-width="1.5"/>
  <circle cx="11" cy="42" r="2.5" fill="none" stroke="currentColor" stroke-width="1.5"/>
  <circle cx="8" cy="33" r="2.5" fill="none" stroke="currentColor" stroke-width="1.5"/>
  <circle cx="10" cy="24" r="2.5" fill="none" stroke="currentColor" stroke-width="1.5"/>
  <circle cx="14" cy="16" r="2.5" fill="none" stroke="currentColor" stroke-width="1.5"/>
  <circle cx="22" cy="10" r="2.5" fill="none" stroke="currentColor" stroke-width="1.5"/>
  <line x1="32" y1="58" x2="32" y2="64" stroke="currentColor" stroke-width="1.5"/>
  <path d="M29 62 L32 64 L35 62" fill="none" stroke="currentColor" stroke-width="1.5"/>
</symbol>

<!-- GOLD BAR - for 冤親債主解怨金條 -->
<symbol id="ico-goldbar" viewBox="0 0 64 64">
  <path d="M12 44 L22 20 L42 20 L52 44 Z" fill="none" stroke="currentColor" stroke-width="2.5" stroke-linejoin="round"/>
  <line x1="22" y1="20" x2="18" y2="32" stroke="currentColor" stroke-width="1.5" opacity="0.5"/>
  <line x1="42" y1="20" x2="46" y2="32" stroke="currentColor" stroke-width="1.5" opacity="0.5"/>
  <path d="M26 30 L30 30 L28 26 Z" fill="currentColor" opacity="0.4"/>
  <text x="32" y="39" text-anchor="middle" fill="currentColor" font-size="10" font-weight="bold">金</text>
  <path d="M8 44 L56 44 L54 50 L10 50 Z" fill="none" stroke="currentColor" stroke-width="2"/>
</symbol>

<!-- VAJRA / RESOLVE - for 化解事情 -->
<symbol id="ico-vajra" viewBox="0 0 64 64">
  <circle cx="32" cy="32" r="6" fill="none" stroke="currentColor" stroke-width="2"/>
  <circle cx="32" cy="32" r="2" fill="currentColor"/>
  <path d="M32 26 L32 6 M28 10 L32 4 L36 10" fill="none" stroke="currentColor" stroke-width="2" stroke-linecap="round"/>
  <path d="M32 38 L32 58 M28 54 L32 60 L36 54" fill="none" stroke="currentColor" stroke-width="2" stroke-linecap="round"/>
  <path d="M26 32 L6 32 M10 28 L4 32 L10 36" fill="none" stroke="currentColor" stroke-width="2" stroke-linecap="round"/>
  <path d="M38 32 L58 32 M54 28 L60 32 L54 36" fill="none" stroke="currentColor" stroke-width="2" stroke-linecap="round"/>
  <line x1="27.8" y1="27.8" x2="16" y2="16" stroke="currentColor" stroke-width="1.2" opacity="0.5"/>
  <line x1="36.2" y1="27.8" x2="48" y2="16" stroke="currentColor" stroke-width="1.2" opacity="0.5"/>
  <line x1="27.8" y1="36.2" x2="16" y2="48" stroke="currentColor" stroke-width="1.2" opacity="0.5"/>
  <line x1="36.2" y1="36.2" x2="48" y2="48" stroke="currentColor" stroke-width="1.2" opacity="0.5"/>
</symbol>

<!-- OM SYMBOL - for 藏傳佛教傳承 -->
<symbol id="ico-om" viewBox="0 0 64 64">
  <text x="32" y="48" text-anchor="middle" fill="currentColor" font-size="44" font-family="serif" font-weight="bold">ༀ</text>
</symbol>

<!-- SACRED FIRE - for 香火鼎盛 and timeline -->
<symbol id="ico-fire" viewBox="0 0 64 64">
  <path d="M32 4 Q40 20 44 30 Q48 40 40 50 Q36 56 32 58 Q28 56 24 50 Q16 40 20 30 Q24 20 32 4Z" fill="none" stroke="currentColor" stroke-width="2"/>
  <path d="M32 18 Q36 28 38 34 Q40 40 36 46 Q34 48 32 48 Q30 48 28 46 Q24 40 26 34 Q28 28 32 18Z" fill="currentColor" opacity="0.4"/>
  <path d="M32 30 Q34 36 34 40 Q34 44 32 44 Q30 44 30 40 Q30 36 32 30Z" fill="currentColor" opacity="0.7"/>
</symbol>

<!-- PRAYING HANDS / LOTUS HANDS - for 法會與修持 -->
<symbol id="ico-pray" viewBox="0 0 64 64">
  <path d="M24 56 L24 32 Q24 24 28 20 L32 14 L36 20 Q40 24 40 32 L40 56" fill="none" stroke="currentColor" stroke-width="2"/>
  <line x1="24" y1="38" x2="40" y2="38" stroke="currentColor" stroke-width="1.5" opacity="0.4"/>
  <line x1="24" y1="44" x2="40" y2="44" stroke="currentColor" stroke-width="1.5" opacity="0.4"/>
  <line x1="24" y1="50" x2="40" y2="50" stroke="currentColor" stroke-width="1.5" opacity="0.4"/>
  <circle cx="32" cy="10" r="3" fill="currentColor" opacity="0.5"/>
  <path d="M26 8 L32 2 L38 8" fill="none" stroke="currentColor" stroke-width="1.5" opacity="0.5"/>
</symbol>

<!-- MAP PIN - for address -->
<symbol id="ico-pin" viewBox="0 0 64 64">
  <path d="M32 58 Q20 42 16 34 Q12 26 16 20 Q20 12 32 10 Q44 12 48 20 Q52 26 48 34 Q44 42 32 58Z" fill="none" stroke="currentColor" stroke-width="2.5"/>
  <circle cx="32" cy="26" r="8" fill="none" stroke="currentColor" stroke-width="2"/>
  <circle cx="32" cy="26" r="3" fill="currentColor"/>
</symbol>

<!-- CLOCK - for open hours -->
<symbol id="ico-clock" viewBox="0 0 64 64">
  <circle cx="32" cy="32" r="26" fill="none" stroke="currentColor" stroke-width="2.5"/>
  <circle cx="32" cy="32" r="2" fill="currentColor"/>
  <line x1="32" y1="32" x2="32" y2="16" stroke="currentColor" stroke-width="2.5" stroke-linecap="round"/>
  <line x1="32" y1="32" x2="44" y2="38" stroke="currentColor" stroke-width="2" stroke-linecap="round"/>
  <circle cx="32" cy="8" r="1.5" fill="currentColor" opacity="0.5"/>
  <circle cx="56" cy="32" r="1.5" fill="currentColor" opacity="0.5"/>
  <circle cx="32" cy="56" r="1.5" fill="currentColor" opacity="0.5"/>
  <circle cx="8" cy="32" r="1.5" fill="currentColor" opacity="0.5"/>
</symbol>

<!-- PHONE - for contact -->
<symbol id="ico-phone" viewBox="0 0 64 64">
  <path d="M18 8 Q14 8 12 12 Q8 20 12 32 Q16 44 28 52 Q36 58 44 56 Q52 54 54 48 L50 40 Q48 38 44 40 L38 44 Q34 42 28 36 Q22 30 20 26 L24 20 Q26 16 24 14 Z" fill="none" stroke="currentColor" stroke-width="2.5" stroke-linejoin="round"/>
</symbol>

<!-- CHEVRON DOWN - for scroll indicator -->
<symbol id="ico-chevron" viewBox="0 0 64 64">
  <path d="M16 24 L32 40 L48 24" fill="none" stroke="currentColor" stroke-width="3" stroke-linecap="round" stroke-linejoin="round"/>
</symbol>

<!-- HAMBURGER MENU -->
<symbol id="ico-menu" viewBox="0 0 64 64">
  <line x1="12" y1="18" x2="52" y2="18" stroke="currentColor" stroke-width="4" stroke-linecap="round"/>
  <line x1="12" y1="32" x2="52" y2="32" stroke="currentColor" stroke-width="4" stroke-linecap="round"/>
  <line x1="12" y1="46" x2="52" y2="46" stroke="currentColor" stroke-width="4" stroke-linecap="round"/>
</symbol>

<!-- INCENSE / CANDLE FLAME - for timeline 1949 -->
<symbol id="ico-incense" viewBox="0 0 64 64">
  <line x1="32" y1="60" x2="32" y2="28" stroke="currentColor" stroke-width="2"/>
  <path d="M32 28 Q28 20 30 14 Q32 8 32 4 Q32 8 34 14 Q36 20 32 28Z" fill="currentColor" opacity="0.8"/>
  <path d="M30 18 Q32 12 34 18" fill="none" stroke="currentColor" stroke-width="1" opacity="0.5"/>
  <ellipse cx="32" cy="60" rx="8" ry="3" fill="none" stroke="currentColor" stroke-width="1.5"/>
</symbol>

<!-- LOTUS HANDS / WELCOME - for CTA -->
<symbol id="ico-welcome" viewBox="0 0 64 64">
  <path d="M32 12 Q28 20 24 24 Q18 28 14 28 Q20 32 24 36 Q28 40 32 48 Q36 40 40 36 Q44 32 50 28 Q46 28 40 24 Q36 20 32 12Z" fill="none" stroke="currentColor" stroke-width="2"/>
  <circle cx="32" cy="8" r="3" fill="currentColor" opacity="0.6"/>
  <path d="M18 48 Q24 44 32 48 Q40 44 46 48" fill="none" stroke="currentColor" stroke-width="1.5" opacity="0.5"/>
  <path d="M14 54 Q22 50 32 54 Q42 50 50 54" fill="none" stroke="currentColor" stroke-width="1.5" opacity="0.5"/>
</symbol>

</svg>
