<svg viewBox="0 0 32 32" fill="none" xmlns="http://www.w3.org/2000/svg">
  <defs>
    <linearGradient id="gold-outer" x1="0%" y1="0%" x2="100%" y2="100%">
      <stop offset="0%" stop-color="#fef08a"/>
      <stop offset="25%" stop-color="#fbbf24"/>
      <stop offset="50%" stop-color="#f59e0b"/>
      <stop offset="75%" stop-color="#d97706"/>
      <stop offset="100%" stop-color="#b45309"/>
    </linearGradient>
    <linearGradient id="gold-inner" x1="0%" y1="0%" x2="100%" y2="100%">
      <stop offset="0%" stop-color="#fde047"/>
      <stop offset="50%" stop-color="#eab308"/>
      <stop offset="100%" stop-color="#ca8a04"/>
    </linearGradient>
    <linearGradient id="gold-shine" x1="0%" y1="0%" x2="100%" y2="100%">
      <stop offset="0%" stop-color="#ffffff" stop-opacity="0.8"/>
      <stop offset="100%" stop-color="#ffffff" stop-opacity="0"/>
    </linearGradient>
    <filter id="gold-glow" x="-30%" y="-30%" width="160%" height="160%">
      <feGaussianBlur in="SourceGraphic" stdDeviation="1" result="blur"/>
      <feMerge><feMergeNode in="blur"/><feMergeNode in="SourceGraphic"/></feMerge>
    </filter>
  </defs>
  <!-- Outer coin rim -->
  <circle cx="16" cy="16" r="14" fill="url(#gold-outer)" filter="url(#gold-glow)"/>
  <!-- Coin edge detail -->
  <circle cx="16" cy="16" r="13" fill="none" stroke="#92400e" stroke-width="0.5" opacity="0.5"/>
  <!-- Inner coin face -->
  <circle cx="16" cy="16" r="11" fill="url(#gold-inner)"/>
  <!-- Inner ring detail -->
  <circle cx="16" cy="16" r="9.5" fill="none" stroke="#a16207" stroke-width="0.4" opacity="0.6"/>
  <!-- Crown emblem (represents value) -->
  <path d="M10 18L10 14L12 16L16 12L20 16L22 14L22 18Z" fill="#92400e" opacity="0.85"/>
  <path d="M10 17L10 13L12 15L16 11L20 15L22 13L22 17Z" fill="#fef3c7" opacity="0.9"/>
  <!-- Crown dots -->
  <circle cx="10" cy="13" r="1" fill="#fef3c7" opacity="0.9"/>
  <circle cx="16" cy="11" r="1.2" fill="#fef3c7" opacity="0.9"/>
  <circle cx="22" cy="13" r="1" fill="#fef3c7" opacity="0.9"/>
  <!-- Top shine arc -->
  <path d="M8 10 Q16 4 24 10" stroke="url(#gold-shine)" stroke-width="2" fill="none" opacity="0.6"/>
  <!-- Sparkle -->
  <circle cx="22" cy="8" r="1.2" fill="#ffffff" opacity="0.7"/>
</svg>
