<?xml version="1.0" encoding="UTF-8"?>
<!--
  NumbahWan Guild Custom Icon Set
  Style: Pixel-art gaming with orange glow aesthetic
  Usage: <svg class="nw-icon"><use href="/static/icons/nw-icons.svg#icon-name"></use></svg>
-->
<svg xmlns="http://www.w3.org/2000/svg" style="display:none">
  <defs>
    <!-- Gradient definitions for glow effects -->
    <linearGradient id="nw-orange-glow" x1="0%" y1="0%" x2="100%" y2="100%">
      <stop offset="0%" style="stop-color:#ff9d4d"/>
      <stop offset="100%" style="stop-color:#ff6b00"/>
    </linearGradient>
    <linearGradient id="nw-gold-glow" x1="0%" y1="0%" x2="100%" y2="100%">
      <stop offset="0%" style="stop-color:#ffd700"/>
      <stop offset="100%" style="stop-color:#ff9500"/>
    </linearGradient>
    <linearGradient id="nw-fire-glow" x1="0%" y1="100%" x2="100%" y2="0%">
      <stop offset="0%" style="stop-color:#ff4500"/>
      <stop offset="50%" style="stop-color:#ff6b00"/>
      <stop offset="100%" style="stop-color:#ffd700"/>
    </linearGradient>
    <linearGradient id="nw-pink-glow" x1="0%" y1="0%" x2="100%" y2="100%">
      <stop offset="0%" style="stop-color:#ff69b4"/>
      <stop offset="100%" style="stop-color:#ec4899"/>
    </linearGradient>
    <linearGradient id="nw-purple-glow" x1="0%" y1="0%" x2="100%" y2="100%">
      <stop offset="0%" style="stop-color:#a855f7"/>
      <stop offset="100%" style="stop-color:#7c3aed"/>
    </linearGradient>
    <linearGradient id="nw-green-glow" x1="0%" y1="0%" x2="100%" y2="100%">
      <stop offset="0%" style="stop-color:#4ade80"/>
      <stop offset="100%" style="stop-color:#22c55e"/>
    </linearGradient>
    <linearGradient id="nw-red-glow" x1="0%" y1="0%" x2="100%" y2="100%">
      <stop offset="0%" style="stop-color:#f87171"/>
      <stop offset="100%" style="stop-color:#ef4444"/>
    </linearGradient>
    <linearGradient id="nw-blue-glow" x1="0%" y1="0%" x2="100%" y2="100%">
      <stop offset="0%" style="stop-color:#60a5fa"/>
      <stop offset="100%" style="stop-color:#3b82f6"/>
    </linearGradient>
  </defs>

  <!-- ==================== NAVIGATION ICONS ==================== -->
  
  <!-- Home - Pixel house with chimney -->
  <symbol id="home" viewBox="0 0 24 24">
    <path fill="currentColor" d="M3 12L5 10V19C5 19.5 5.5 20 6 20H9V14H15V20H18C18.5 20 19 19.5 19 19V10L21 12L12 3L3 12Z"/>
    <rect fill="currentColor" x="16" y="5" width="2" height="4"/>
  </symbol>

  <!-- Arrow Left - Chunky pixel arrow -->
  <symbol id="arrow-left" viewBox="0 0 24 24">
    <path fill="currentColor" d="M14 6L8 12L14 18V14H20V10H14V6Z"/>
  </symbol>

  <!-- Arrow Right -->
  <symbol id="arrow-right" viewBox="0 0 24 24">
    <path fill="currentColor" d="M10 6L16 12L10 18V14H4V10H10V6Z"/>
  </symbol>

  <!-- Arrow Up -->
  <symbol id="arrow-up" viewBox="0 0 24 24">
    <path fill="currentColor" d="M6 14L12 8L18 14H14V20H10V14H6Z"/>
  </symbol>

  <!-- Arrow Down / Chevron Down -->
  <symbol id="arrow-down" viewBox="0 0 24 24">
    <path fill="currentColor" d="M6 10L12 16L18 10H14V4H10V10H6Z"/>
  </symbol>

  <!-- Chevron Down (smaller) -->
  <symbol id="chevron-down" viewBox="0 0 24 24">
    <path fill="currentColor" d="M7 9L12 14L17 9H7Z"/>
  </symbol>

  <!-- Menu / Hamburger -->
  <symbol id="menu" viewBox="0 0 24 24">
    <rect fill="currentColor" x="4" y="6" width="16" height="2" rx="1"/>
    <rect fill="currentColor" x="4" y="11" width="16" height="2" rx="1"/>
    <rect fill="currentColor" x="4" y="16" width="16" height="2" rx="1"/>
  </symbol>

  <!-- Close / X -->
  <symbol id="close" viewBox="0 0 24 24">
    <path fill="currentColor" d="M6 6L18 18M18 6L6 18" stroke="currentColor" stroke-width="2.5" stroke-linecap="round"/>
  </symbol>

  <!-- ==================== GAMING / GUILD ICONS ==================== -->

  <!-- Gaming Controller - Main site icon -->
  <symbol id="gaming" viewBox="0 0 24 24">
    <path fill="currentColor" d="M7 8C4.5 8 2 10.5 2 13C2 15.5 4 18 7 18C9 18 10 17 11 16H13C14 17 15 18 17 18C20 18 22 15.5 22 13C22 10.5 19.5 8 17 8H7Z"/>
    <rect fill="url(#nw-orange-glow)" x="5" y="11" width="4" height="2" rx="0.5"/>
    <rect fill="url(#nw-orange-glow)" x="6" y="10" width="2" height="4" rx="0.5"/>
    <circle fill="url(#nw-orange-glow)" cx="16" cy="11" r="1"/>
    <circle fill="url(#nw-orange-glow)" cx="18" cy="13" r="1"/>
  </symbol>

  <!-- Crown - Guild Master -->
  <symbol id="crown" viewBox="0 0 24 24">
    <path fill="currentColor" d="M3 18H21V16L18 8L14 12L12 6L10 12L6 8L3 16V18Z"/>
    <circle fill="currentColor" cx="6" cy="7" r="2"/>
    <circle fill="currentColor" cx="12" cy="5" r="2"/>
    <circle fill="currentColor" cx="18" cy="7" r="2"/>
  </symbol>

  <!-- Sword - Combat/PvP -->
  <symbol id="sword" viewBox="0 0 24 24">
    <path fill="currentColor" d="M19 3L21 5L13 13L11 11L19 3Z"/>
    <path fill="url(#nw-orange-glow)" d="M11 11L13 13L9 17L6 18L7 15L11 11Z"/>
    <path fill="currentColor" d="M5 19L3 21L5 21L7 19L5 17L3 19L5 19Z"/>
  </symbol>

  <!-- Dual Swords - Crossed for battle -->
  <symbol id="swords" viewBox="0 0 24 24">
    <path fill="currentColor" d="M6 3L4 5L10 11L8 13L4 9L2 11L6 15L8 13L10 15L12 13L6 7L8 5L14 11L12 13L14 15L16 13L20 17L22 15L18 11L20 9L14 3L12 5L10 3L6 3Z"/>
    <path fill="currentColor" d="M10 15L8 17L10 19L12 21L14 19L12 17L10 15Z" opacity="0.7"/>
  </symbol>

  <!-- Shield - Defense/Protection -->
  <symbol id="shield" viewBox="0 0 24 24">
    <path fill="currentColor" d="M12 2L4 5V11C4 16 7.5 20.5 12 22C16.5 20.5 20 16 20 11V5L12 2Z"/>
    <path fill="url(#nw-orange-glow)" d="M12 4L6 6.5V11C6 15 8.5 18.5 12 20C15.5 18.5 18 15 18 11V6.5L12 4Z" opacity="0.3"/>
    <text x="12" y="15" text-anchor="middle" fill="url(#nw-orange-glow)" font-family="'Press Start 2P', monospace" font-size="8" font-weight="bold">N</text>
  </symbol>

  <!-- Trophy - Achievement/Ranking -->
  <symbol id="trophy" viewBox="0 0 24 24">
    <path fill="currentColor" d="M19 5H17V3H7V5H5C3.9 5 3 5.9 3 7V8C3 10.2 4.6 12 6.7 12.5C7.4 14 8.9 15.1 10.6 15.4L10 17H8V19H16V17H14L13.4 15.4C15.1 15.1 16.6 14 17.3 12.5C19.4 12 21 10.2 21 8V7C21 5.9 20.1 5 19 5ZM5 8V7H7V10.5C5.8 10 5 9.1 5 8ZM19 8C19 9.1 18.2 10 17 10.5V7H19V8Z"/>
    <rect fill="currentColor" x="9" y="19" width="6" height="2"/>
  </symbol>

  <!-- Star - Rating/Featured -->
  <symbol id="star" viewBox="0 0 24 24">
    <path fill="url(#nw-gold-glow)" d="M12 2L15 8.5L22 9.5L17 14.5L18 21.5L12 18L6 21.5L7 14.5L2 9.5L9 8.5L12 2Z"/>
  </symbol>

  <!-- Star Outline -->
  <symbol id="star-outline" viewBox="0 0 24 24">
    <path fill="none" stroke="currentColor" stroke-width="1.5" d="M12 3L14.5 8.5L20.5 9.3L16 13.8L17 19.7L12 17L7 19.7L8 13.8L3.5 9.3L9.5 8.5L12 3Z"/>
  </symbol>

  <!-- Fire - Hot/Trending -->
  <symbol id="fire" viewBox="0 0 24 24">
    <path fill="url(#nw-fire-glow)" d="M12 2C12 2 9 6 9 9C9 11 10.5 12 12 12C13.5 12 15 11 15 9C15 6 12 2 12 2Z"/>
    <path fill="url(#nw-fire-glow)" d="M12 22C7 22 4 18 4 14C4 10 6 7 8 5C8 8 10 10 12 10C14 10 16 8 16 5C18 7 20 10 20 14C20 18 17 22 12 22Z"/>
    <path fill="#fff" opacity="0.3" d="M12 18C10 18 8 16 8 14C8 12 10 11 12 11C14 11 16 12 16 14C16 16 14 18 12 18Z"/>
  </symbol>

  <!-- Skull - Death/Fail -->
  <symbol id="skull" viewBox="0 0 24 24">
    <path fill="currentColor" d="M12 2C7 2 4 6 4 10C4 13 5 15 7 16V19C7 20 8 21 9 21H15C16 21 17 20 17 19V16C19 15 20 13 20 10C20 6 17 2 12 2Z"/>
    <circle fill="#0a0a0f" cx="9" cy="10" r="2"/>
    <circle fill="#0a0a0f" cx="15" cy="10" r="2"/>
    <path fill="#0a0a0f" d="M9 16H10V18H9V16ZM11 16H13V18H11V16ZM14 16H15V18H14V16Z"/>
  </symbol>

  <!-- Party/Celebration -->
  <symbol id="party" viewBox="0 0 24 24">
    <path fill="url(#nw-orange-glow)" d="M4 21L6 11L14 19L4 21Z"/>
    <path fill="url(#nw-gold-glow)" d="M7 8L5 10L7 12L9 10L7 8Z"/>
    <circle fill="url(#nw-pink-glow)" cx="10" cy="5" r="1.5"/>
    <circle fill="url(#nw-purple-glow)" cx="15" cy="4" r="1"/>
    <circle fill="url(#nw-green-glow)" cx="18" cy="7" r="1.5"/>
    <circle fill="url(#nw-gold-glow)" cx="19" cy="12" r="1"/>
    <path fill="url(#nw-pink-glow)" d="M13 8L16 5L18 7L15 10L13 8Z"/>
  </symbol>

  <!-- Confetti -->
  <symbol id="confetti" viewBox="0 0 24 24">
    <rect fill="url(#nw-orange-glow)" x="3" y="3" width="3" height="3" transform="rotate(15 4.5 4.5)"/>
    <rect fill="url(#nw-pink-glow)" x="10" y="2" width="2" height="4"/>
    <rect fill="url(#nw-purple-glow)" x="17" y="4" width="3" height="2" transform="rotate(-20 18.5 5)"/>
    <rect fill="url(#nw-green-glow)" x="5" y="10" width="2" height="3"/>
    <rect fill="url(#nw-gold-glow)" x="19" y="10" width="2" height="2"/>
    <rect fill="url(#nw-blue-glow)" x="8" y="16" width="3" height="2" transform="rotate(10 9.5 17)"/>
    <rect fill="url(#nw-orange-glow)" x="15" y="15" width="2" height="3"/>
    <circle fill="url(#nw-pink-glow)" cx="4" cy="18" r="1.5"/>
    <circle fill="url(#nw-gold-glow)" cx="20" cy="18" r="1"/>
  </symbol>

  <!-- Meme/Laugh -->
  <symbol id="meme" viewBox="0 0 24 24">
    <circle fill="currentColor" cx="12" cy="12" r="10"/>
    <path fill="url(#nw-orange-glow)" d="M8 9C8 8 8.5 7 9.5 7C10.5 7 11 8 11 9" stroke="url(#nw-orange-glow)" stroke-width="1.5" stroke-linecap="round"/>
    <path fill="url(#nw-orange-glow)" d="M13 9C13 8 13.5 7 14.5 7C15.5 7 16 8 16 9" stroke="url(#nw-orange-glow)" stroke-width="1.5" stroke-linecap="round"/>
    <path fill="none" stroke="url(#nw-orange-glow)" stroke-width="1.5" d="M7 13C8 16 10 17 12 17C14 17 16 16 17 13"/>
    <path fill="url(#nw-orange-glow)" d="M7 13H17V15C17 16.5 14.5 18 12 18C9.5 18 7 16.5 7 15V13Z"/>
  </symbol>

  <!-- Sleep/AFK -->
  <symbol id="sleep" viewBox="0 0 24 24">
    <circle fill="currentColor" cx="12" cy="12" r="10"/>
    <path fill="#0a0a0f" d="M7 10C7 10 8 9 9 9C10 9 11 10 11 10" stroke="#0a0a0f" stroke-width="1.5" stroke-linecap="round"/>
    <path fill="#0a0a0f" d="M13 10C13 10 14 9 15 9C16 9 17 10 17 10" stroke="#0a0a0f" stroke-width="1.5" stroke-linecap="round"/>
    <path fill="none" stroke="#0a0a0f" stroke-width="1.5" d="M9 15C10 14 11 13.5 12 13.5C13 13.5 14 14 15 15"/>
    <text x="17" y="7" fill="#fff" font-size="7" font-weight="bold" font-family="sans-serif">Z</text>
    <text x="20" y="4" fill="#fff" font-size="5" font-weight="bold" font-family="sans-serif">z</text>
  </symbol>

  <!-- Ghost - Inactive/Hidden -->
  <symbol id="ghost" viewBox="0 0 24 24">
    <path fill="currentColor" d="M12 3C8 3 5 6 5 10V19L7 17L9 19L11 17L13 19L15 17L17 19L19 17V10C19 6 16 3 12 3Z"/>
    <circle fill="#0a0a0f" cx="9" cy="10" r="1.5"/>
    <circle fill="#0a0a0f" cx="15" cy="10" r="1.5"/>
  </symbol>

  <!-- ==================== ACTION ICONS ==================== -->

  <!-- Copy -->
  <symbol id="copy" viewBox="0 0 24 24">
    <rect fill="currentColor" x="8" y="8" width="12" height="14" rx="2"/>
    <path fill="currentColor" d="M6 6H14V4H6C4.9 4 4 4.9 4 6V16H6V6Z"/>
  </symbol>

  <!-- Share -->
  <symbol id="share" viewBox="0 0 24 24">
    <circle fill="currentColor" cx="18" cy="5" r="3"/>
    <circle fill="currentColor" cx="6" cy="12" r="3"/>
    <circle fill="currentColor" cx="18" cy="19" r="3"/>
    <path fill="none" stroke="currentColor" stroke-width="1.5" d="M9 10.5L15 6.5M9 13.5L15 17.5"/>
  </symbol>

  <!-- Upload -->
  <symbol id="upload" viewBox="0 0 24 24">
    <path fill="currentColor" d="M9 14V18H15V14H19L12 7L5 14H9Z"/>
    <rect fill="currentColor" x="4" y="19" width="16" height="2"/>
  </symbol>

  <!-- Download -->
  <symbol id="download" viewBox="0 0 24 24">
    <path fill="currentColor" d="M9 10V6H15V10H19L12 17L5 10H9Z"/>
    <rect fill="currentColor" x="4" y="19" width="16" height="2"/>
  </symbol>

  <!-- Settings/Cog -->
  <symbol id="settings" viewBox="0 0 24 24">
    <circle fill="currentColor" cx="12" cy="12" r="3"/>
    <path fill="currentColor" d="M19.4 13C19.5 12.7 19.5 12.3 19.5 12C19.5 11.7 19.5 11.3 19.4 11L21.5 9.4C21.7 9.2 21.8 8.9 21.6 8.6L19.6 5.4C19.5 5.1 19.2 5 18.9 5.1L16.4 6.1C15.9 5.7 15.3 5.4 14.7 5.2L14.3 2.6C14.3 2.3 14 2 13.7 2H9.7C9.4 2 9.2 2.3 9.1 2.6L8.7 5.2C8.1 5.4 7.5 5.7 7 6.1L4.5 5.1C4.2 5 3.9 5.1 3.8 5.4L1.8 8.6C1.6 8.9 1.7 9.2 1.9 9.4L4 11C4 11.3 4 11.7 4 12C4 12.3 4 12.7 4.1 13L2 14.6C1.8 14.8 1.7 15.1 1.9 15.4L3.9 18.6C4 18.9 4.3 19 4.6 18.9L7.1 17.9C7.6 18.3 8.2 18.6 8.8 18.8L9.2 21.4C9.2 21.7 9.5 22 9.8 22H13.8C14.1 22 14.4 21.7 14.4 21.4L14.8 18.8C15.4 18.6 16 18.3 16.5 17.9L19 18.9C19.3 19 19.6 18.9 19.7 18.6L21.7 15.4C21.9 15.1 21.8 14.8 21.6 14.6L19.4 13Z"/>
  </symbol>

  <!-- Info -->
  <symbol id="info" viewBox="0 0 24 24">
    <circle fill="currentColor" cx="12" cy="12" r="10"/>
    <rect fill="url(#nw-orange-glow)" x="11" y="10" width="2" height="7" rx="1"/>
    <circle fill="url(#nw-orange-glow)" cx="12" cy="7" r="1.5"/>
  </symbol>

  <!-- Check/Success -->
  <symbol id="check" viewBox="0 0 24 24">
    <path fill="url(#nw-green-glow)" d="M9 16.2L4.8 12L3.4 13.4L9 19L21 7L19.6 5.6L9 16.2Z"/>
  </symbol>

  <!-- Check Circle -->
  <symbol id="check-circle" viewBox="0 0 24 24">
    <circle fill="url(#nw-green-glow)" cx="12" cy="12" r="10"/>
    <path fill="#0a0a0f" d="M10 14.2L7 11.2L5.6 12.6L10 17L18 9L16.6 7.6L10 14.2Z"/>
  </symbol>

  <!-- X/Error -->
  <symbol id="x-mark" viewBox="0 0 24 24">
    <path fill="url(#nw-red-glow)" d="M18 6L6 18M6 6L18 18" stroke="url(#nw-red-glow)" stroke-width="2.5" stroke-linecap="round"/>
  </symbol>

  <!-- X Circle -->
  <symbol id="x-circle" viewBox="0 0 24 24">
    <circle fill="url(#nw-red-glow)" cx="12" cy="12" r="10"/>
    <path fill="#0a0a0f" d="M15 9L9 15M9 9L15 15" stroke="#0a0a0f" stroke-width="2" stroke-linecap="round"/>
  </symbol>

  <!-- Warning -->
  <symbol id="warning" viewBox="0 0 24 24">
    <path fill="url(#nw-gold-glow)" d="M12 2L2 20H22L12 2Z"/>
    <rect fill="#0a0a0f" x="11" y="8" width="2" height="6"/>
    <circle fill="#0a0a0f" cx="12" cy="16" r="1"/>
  </symbol>

  <!-- ==================== UI ICONS ==================== -->

  <!-- Chat/Comment -->
  <symbol id="chat" viewBox="0 0 24 24">
    <path fill="currentColor" d="M4 4H20C21.1 4 22 4.9 22 6V16C22 17.1 21.1 18 20 18H6L2 22V6C2 4.9 2.9 4 4 4Z"/>
    <circle fill="url(#nw-orange-glow)" cx="8" cy="11" r="1"/>
    <circle fill="url(#nw-orange-glow)" cx="12" cy="11" r="1"/>
    <circle fill="url(#nw-orange-glow)" cx="16" cy="11" r="1"/>
  </symbol>

  <!-- Heart/Like -->
  <symbol id="heart" viewBox="0 0 24 24">
    <path fill="currentColor" d="M12 21L10.5 19.6C5.4 15 2 12 2 8.5C2 5.4 4.4 3 7.5 3C9.2 3 10.9 3.8 12 5.1C13.1 3.8 14.8 3 16.5 3C19.6 3 22 5.4 22 8.5C22 12 18.6 15 13.5 19.6L12 21Z"/>
  </symbol>

  <!-- Heart Outline -->
  <symbol id="heart-outline" viewBox="0 0 24 24">
    <path fill="none" stroke="currentColor" stroke-width="1.5" d="M12 19.5L10.5 18.1C5.4 13.5 2 10.5 2 7C2 4.4 4.4 2 7 2C8.7 2 10.4 2.8 11.5 4.1L12 4.7L12.5 4.1C13.6 2.8 15.3 2 17 2C19.6 2 22 4.4 22 7C22 10.5 18.6 13.5 13.5 18.1L12 19.5Z"/>
  </symbol>

  <!-- Upvote -->
  <symbol id="upvote" viewBox="0 0 24 24">
    <path fill="url(#nw-orange-glow)" d="M12 4L4 12H8V20H16V12H20L12 4Z"/>
  </symbol>

  <!-- Downvote -->
  <symbol id="downvote" viewBox="0 0 24 24">
    <path fill="currentColor" d="M12 20L20 12H16V4H8V12H4L12 20Z"/>
  </symbol>

  <!-- Clipboard/Apply -->
  <symbol id="clipboard" viewBox="0 0 24 24">
    <path fill="currentColor" d="M17 3H14.8C14.4 1.8 13.3 1 12 1C10.7 1 9.6 1.8 9.2 3H7C5.9 3 5 3.9 5 5V19C5 20.1 5.9 21 7 21H17C18.1 21 19 20.1 19 19V5C19 3.9 18.1 3 17 3Z"/>
    <circle fill="url(#nw-orange-glow)" cx="12" cy="3.5" r="1.5"/>
    <rect fill="url(#nw-orange-glow)" x="8" y="8" width="8" height="1.5"/>
    <rect fill="url(#nw-orange-glow)" x="8" y="11" width="6" height="1.5"/>
    <rect fill="url(#nw-orange-glow)" x="8" y="14" width="7" height="1.5"/>
  </symbol>

  <!-- Document/Scroll -->
  <symbol id="document" viewBox="0 0 24 24">
    <path fill="currentColor" d="M14 2H6C4.9 2 4 2.9 4 4V20C4 21.1 4.9 22 6 22H18C19.1 22 20 21.1 20 20V8L14 2Z"/>
    <path fill="url(#nw-orange-glow)" d="M13 3.5V9H18.5L13 3.5Z"/>
    <rect fill="url(#nw-orange-glow)" x="7" y="12" width="10" height="1.5"/>
    <rect fill="url(#nw-orange-glow)" x="7" y="15" width="7" height="1.5"/>
  </symbol>

  <!-- Search -->
  <symbol id="search" viewBox="0 0 24 24">
    <circle fill="none" stroke="currentColor" stroke-width="2" cx="10" cy="10" r="6"/>
    <path fill="currentColor" d="M14 14L20 20" stroke="currentColor" stroke-width="2.5" stroke-linecap="round"/>
  </symbol>

  <!-- Filter -->
  <symbol id="filter" viewBox="0 0 24 24">
    <path fill="currentColor" d="M3 4H21V6L14 13V20L10 22V13L3 6V4Z"/>
  </symbol>

  <!-- Eye/View -->
  <symbol id="eye" viewBox="0 0 24 24">
    <path fill="currentColor" d="M12 4C7 4 2.7 7.1 1 12C2.7 16.9 7 20 12 20C17 20 21.3 16.9 23 12C21.3 7.1 17 4 12 4Z"/>
    <circle fill="url(#nw-orange-glow)" cx="12" cy="12" r="4"/>
    <circle fill="#0a0a0f" cx="12" cy="12" r="2"/>
  </symbol>

  <!-- Eye Off/Hidden -->
  <symbol id="eye-off" viewBox="0 0 24 24">
    <path fill="currentColor" d="M12 4C7 4 2.7 7.1 1 12C1.9 14.6 3.6 16.8 5.8 18.2L3 21L4.4 22.4L21 5.8L19.6 4.4L17 7C15.5 5.2 13.8 4 12 4ZM12 8C14.2 8 16 9.8 16 12C16 12.7 15.8 13.4 15.5 14L12 17.5C11.3 17.8 10.7 18 10 18C7.8 18 6 16.2 6 14C6 13.3 6.2 12.7 6.5 12L12 6.5C12.7 6.2 13.3 6 14 6C16.2 6 18 7.8 18 10C18 10.7 17.8 11.3 17.5 12L14.5 15H21V17L23 15V12C21.3 7.1 17 4 12 4Z"/>
    <path stroke="currentColor" stroke-width="1.5" d="M3 21L21 3"/>
  </symbol>

  <!-- Lock -->
  <symbol id="lock" viewBox="0 0 24 24">
    <rect fill="currentColor" x="5" y="10" width="14" height="12" rx="2"/>
    <path fill="none" stroke="currentColor" stroke-width="2" d="M8 10V7C8 4.8 9.8 3 12 3C14.2 3 16 4.8 16 7V10"/>
    <circle fill="url(#nw-orange-glow)" cx="12" cy="15" r="1.5"/>
    <rect fill="url(#nw-orange-glow)" x="11.25" y="15" width="1.5" height="3"/>
  </symbol>

  <!-- Unlock -->
  <symbol id="unlock" viewBox="0 0 24 24">
    <rect fill="currentColor" x="5" y="10" width="14" height="12" rx="2"/>
    <path fill="none" stroke="currentColor" stroke-width="2" d="M8 10V7C8 4.8 9.8 3 12 3C13.5 3 14.8 3.8 15.5 5"/>
    <circle fill="url(#nw-orange-glow)" cx="12" cy="15" r="1.5"/>
  </symbol>

  <!-- ==================== CATEGORY/SPECIAL ICONS ==================== -->

  <!-- Egg/Easter Egg -->
  <symbol id="egg" viewBox="0 0 24 24">
    <path fill="currentColor" d="M12 3C8 3 5 8 5 13C5 17.4 8.1 21 12 21C15.9 21 19 17.4 19 13C19 8 16 3 12 3Z"/>
    <path fill="url(#nw-orange-glow)" d="M12 5C9 5 7 9 7 13C7 16.3 9.2 19 12 19C14.8 19 17 16.3 17 13C17 9 15 5 12 5Z" opacity="0.2"/>
    <path fill="url(#nw-pink-glow)" d="M9 10C9 10 10 12 12 12C14 12 15 10 15 10" stroke="url(#nw-pink-glow)" stroke-width="1.5" fill="none"/>
  </symbol>

  <!-- Music/BGM -->
  <symbol id="music" viewBox="0 0 24 24">
    <path fill="currentColor" d="M19 3V15.5C19 17.4 17.4 19 15.5 19C13.6 19 12 17.4 12 15.5C12 13.6 13.6 12 15.5 12C16.1 12 16.6 12.1 17 12.4V6H10V17.5C10 19.4 8.4 21 6.5 21C4.6 21 3 19.4 3 17.5C3 15.6 4.6 14 6.5 14C7.1 14 7.6 14.1 8 14.4V3H19Z"/>
  </symbol>

  <!-- Music Off -->
  <symbol id="music-off" viewBox="0 0 24 24">
    <path fill="currentColor" d="M19 3V15.5C19 17.4 17.4 19 15.5 19C13.6 19 12 17.4 12 15.5C12 13.6 13.6 12 15.5 12C16.1 12 16.6 12.1 17 12.4V6H10V17.5C10 19.4 8.4 21 6.5 21C4.6 21 3 19.4 3 17.5C3 15.6 4.6 14 6.5 14C7.1 14 7.6 14.1 8 14.4V3H19Z" opacity="0.3"/>
    <path stroke="url(#nw-red-glow)" stroke-width="2" stroke-linecap="round" d="M3 21L21 3"/>
  </symbol>

  <!-- Camera/Photo -->
  <symbol id="camera" viewBox="0 0 24 24">
    <path fill="currentColor" d="M20 5H17L15 3H9L7 5H4C2.9 5 2 5.9 2 7V19C2 20.1 2.9 21 4 21H20C21.1 21 22 20.1 22 19V7C22 5.9 21.1 5 20 5Z"/>
    <circle fill="#0a0a0f" cx="12" cy="13" r="4"/>
    <circle fill="currentColor" cx="12" cy="13" r="2.5" opacity="0.7"/>
  </symbol>

  <!-- Image/Gallery -->
  <symbol id="image" viewBox="0 0 24 24">
    <rect fill="currentColor" x="3" y="4" width="18" height="16" rx="2"/>
    <circle fill="url(#nw-gold-glow)" cx="8" cy="9" r="2"/>
    <path fill="url(#nw-green-glow)" d="M21 18L15 12L10 17L8 15L3 20V18C3 19.1 3.9 20 5 20H19C20.1 20 21 19.1 21 18Z"/>
  </symbol>

  <!-- Dice/Random -->
  <symbol id="dice" viewBox="0 0 24 24">
    <rect fill="currentColor" x="3" y="3" width="18" height="18" rx="3"/>
    <circle fill="url(#nw-orange-glow)" cx="8" cy="8" r="1.5"/>
    <circle fill="url(#nw-orange-glow)" cx="16" cy="8" r="1.5"/>
    <circle fill="url(#nw-orange-glow)" cx="12" cy="12" r="1.5"/>
    <circle fill="url(#nw-orange-glow)" cx="8" cy="16" r="1.5"/>
    <circle fill="url(#nw-orange-glow)" cx="16" cy="16" r="1.5"/>
  </symbol>

  <!-- Clock/Time -->
  <symbol id="clock" viewBox="0 0 24 24">
    <circle fill="currentColor" cx="12" cy="12" r="10"/>
    <path fill="url(#nw-orange-glow)" d="M12 6V12L16 14" stroke="url(#nw-orange-glow)" stroke-width="2" stroke-linecap="round"/>
    <circle fill="url(#nw-orange-glow)" cx="12" cy="12" r="1.5"/>
  </symbol>

  <!-- Calendar -->
  <symbol id="calendar" viewBox="0 0 24 24">
    <rect fill="currentColor" x="3" y="4" width="18" height="18" rx="2"/>
    <rect fill="url(#nw-orange-glow)" x="3" y="4" width="18" height="4"/>
    <rect fill="url(#nw-orange-glow)" x="7" y="2" width="2" height="4" rx="1"/>
    <rect fill="url(#nw-orange-glow)" x="15" y="2" width="2" height="4" rx="1"/>
    <rect fill="url(#nw-orange-glow)" x="6" y="11" width="3" height="3"/>
    <rect fill="url(#nw-orange-glow)" x="10.5" y="11" width="3" height="3"/>
    <rect fill="url(#nw-orange-glow)" x="15" y="11" width="3" height="3"/>
    <rect fill="url(#nw-orange-glow)" x="6" y="15.5" width="3" height="3"/>
    <rect fill="url(#nw-orange-glow)" x="10.5" y="15.5" width="3" height="3"/>
  </symbol>

  <!-- Gift -->
  <symbol id="gift" viewBox="0 0 24 24">
    <rect fill="url(#nw-orange-glow)" x="3" y="10" width="18" height="11" rx="1"/>
    <rect fill="url(#nw-gold-glow)" x="3" y="7" width="18" height="4" rx="1"/>
    <rect fill="url(#nw-pink-glow)" x="11" y="7" width="2" height="14"/>
    <path fill="url(#nw-pink-glow)" d="M12 7C12 7 9 7 8 5C7 3 9 2 10 2C11 2 12 4 12 7Z"/>
    <path fill="url(#nw-pink-glow)" d="M12 7C12 7 15 7 16 5C17 3 15 2 14 2C13 2 12 4 12 7Z"/>
  </symbol>

  <!-- Target -->
  <symbol id="target" viewBox="0 0 24 24">
    <circle fill="none" stroke="currentColor" stroke-width="2" cx="12" cy="12" r="9"/>
    <circle fill="none" stroke="currentColor" stroke-width="2" cx="12" cy="12" r="5"/>
    <circle fill="url(#nw-orange-glow)" cx="12" cy="12" r="2"/>
  </symbol>

  <!-- Users/Members -->
  <symbol id="users" viewBox="0 0 24 24">
    <circle fill="currentColor" cx="9" cy="8" r="4"/>
    <path fill="currentColor" d="M3 20C3 16.7 6.1 14 10 14C13.9 14 17 16.7 17 20H3Z"/>
    <circle fill="currentColor" cx="17" cy="8" r="3" opacity="0.6"/>
    <path fill="currentColor" d="M17 13C19.8 13 22 15.2 22 18H14C14 15.2 14.2 13 17 13Z" opacity="0.6"/>
  </symbol>

  <!-- User Single -->
  <symbol id="user" viewBox="0 0 24 24">
    <circle fill="currentColor" cx="12" cy="8" r="4"/>
    <path fill="currentColor" d="M4 20C4 16.1 7.6 13 12 13C16.4 13 20 16.1 20 20H4Z"/>
  </symbol>

  <!-- Spicy/Pepper -->
  <symbol id="spicy" viewBox="0 0 24 24">
    <path fill="url(#nw-red-glow)" d="M12 3C12 3 8 5 8 10C8 14 10 18 12 21C14 18 16 14 16 10C16 5 12 3 12 3Z"/>
    <path fill="url(#nw-green-glow)" d="M12 2C12 2 10 3 10 4C10 5 11 5 12 5C13 5 14 5 14 4C14 3 12 2 12 2Z"/>
    <path fill="url(#nw-green-glow)" d="M12 5V2" stroke="url(#nw-green-glow)" stroke-width="1"/>
  </symbol>

  <!-- Thinking/Idea -->
  <symbol id="thinking" viewBox="0 0 24 24">
    <circle fill="currentColor" cx="12" cy="13" r="9"/>
    <path fill="url(#nw-gold-glow)" d="M12 4L13 2L14 4L16 3L15 5L17 6L15 7L16 9L14 8L13 10L12 8L11 10L10 8L8 9L9 7L7 6L9 5L8 3L10 4L11 2L12 4Z"/>
    <circle fill="url(#nw-orange-glow)" cx="9" cy="12" r="1"/>
    <circle fill="url(#nw-orange-glow)" cx="15" cy="12" r="1"/>
    <path fill="url(#nw-orange-glow)" d="M9 16C10 17 11 17.5 12 17.5C13 17.5 14 17 15 16" stroke="url(#nw-orange-glow)" stroke-width="1.5" fill="none" stroke-linecap="round"/>
  </symbol>

  <!-- Question -->
  <symbol id="question" viewBox="0 0 24 24">
    <circle fill="currentColor" cx="12" cy="12" r="10"/>
    <path fill="url(#nw-orange-glow)" d="M12 8C10.3 8 9 9.3 9 11H11C11 10.4 11.4 10 12 10C12.6 10 13 10.4 13 11C13 11.5 12.6 11.8 12 12.2C11.4 12.6 11 13.2 11 14V15H13V14C13 13.5 13.4 13.2 14 12.8C14.6 12.4 15 11.7 15 11C15 9.3 13.7 8 12 8Z"/>
    <circle fill="url(#nw-orange-glow)" cx="12" cy="17" r="1"/>
  </symbol>

  <!-- Globe/World -->
  <symbol id="globe" viewBox="0 0 24 24">
    <circle fill="currentColor" cx="12" cy="12" r="10"/>
    <path fill="url(#nw-orange-glow)" d="M12 2C12 2 8 6 8 12C8 18 12 22 12 22C12 22 16 18 16 12C16 6 12 2 12 2Z" opacity="0.5"/>
    <ellipse fill="none" stroke="url(#nw-orange-glow)" stroke-width="1" cx="12" cy="12" rx="10" ry="4"/>
  </symbol>

  <!-- Link -->
  <symbol id="link" viewBox="0 0 24 24">
    <path fill="currentColor" d="M10 13C10.4 13.6 10.9 14.1 11.5 14.5C12.1 14.9 12.8 15.1 13.5 15.1C14.2 15.1 14.9 14.9 15.5 14.5L19 11C20.1 9.9 20.1 8.1 19 7C17.9 5.9 16.1 5.9 15 7L13.5 8.5"/>
    <path fill="currentColor" d="M14 11C13.6 10.4 13.1 9.9 12.5 9.5C11.9 9.1 11.2 8.9 10.5 8.9C9.8 8.9 9.1 9.1 8.5 9.5L5 13C3.9 14.1 3.9 15.9 5 17C6.1 18.1 7.9 18.1 9 17L10.5 15.5"/>
  </symbol>

  <!-- External Link -->
  <symbol id="external-link" viewBox="0 0 24 24">
    <path fill="currentColor" d="M18 13V19C18 20.1 17.1 21 16 21H5C3.9 21 3 20.1 3 19V8C3 6.9 3.9 6 5 6H11"/>
    <path fill="currentColor" d="M15 3H21V9"/>
    <path fill="none" stroke="currentColor" stroke-width="2" stroke-linecap="round" d="M10 14L21 3"/>
  </symbol>

  <!-- Plus -->
  <symbol id="plus" viewBox="0 0 24 24">
    <path fill="currentColor" d="M11 5V11H5V13H11V19H13V13H19V11H13V5H11Z"/>
  </symbol>

  <!-- Minus -->
  <symbol id="minus" viewBox="0 0 24 24">
    <rect fill="currentColor" x="5" y="11" width="14" height="2"/>
  </symbol>

  <!-- Flag -->
  <symbol id="flag" viewBox="0 0 24 24">
    <path fill="url(#nw-orange-glow)" d="M5 4H19L16 9L19 14H5V4Z"/>
    <rect fill="currentColor" x="4" y="3" width="2" height="18"/>
  </symbol>

  <!-- Bookmark -->
  <symbol id="bookmark" viewBox="0 0 24 24">
    <path fill="currentColor" d="M17 3H7C5.9 3 5 3.9 5 5V21L12 18L19 21V5C19 3.9 18.1 3 17 3Z"/>
  </symbol>

  <!-- Bell/Notification -->
  <symbol id="bell" viewBox="0 0 24 24">
    <path fill="currentColor" d="M12 22C13.1 22 14 21.1 14 20H10C10 21.1 10.9 22 12 22ZM18 16V11C18 7.9 16.4 5.4 13.5 4.7V4C13.5 3.2 12.8 2.5 12 2.5C11.2 2.5 10.5 3.2 10.5 4V4.7C7.6 5.4 6 7.9 6 11V16L4 18V19H20V18L18 16Z"/>
    <circle fill="url(#nw-red-glow)" cx="17" cy="7" r="3"/>
  </symbol>

  <!-- Ship/Boat (for Regina) -->
  <symbol id="ship" viewBox="0 0 24 24">
    <path fill="currentColor" d="M3 17L6 19L9 17L12 19L15 17L18 19L21 17L20 20H4L3 17Z"/>
    <path fill="url(#nw-orange-glow)" d="M5 13H19L20 17H4L5 13Z"/>
    <rect fill="currentColor" x="10" y="6" width="4" height="7"/>
    <rect fill="url(#nw-orange-glow)" x="8" y="8" width="8" height="2"/>
    <path fill="currentColor" d="M12 3V6"/>
    <rect fill="url(#nw-gold-glow)" x="11" y="2" width="2" height="4"/>
  </symbol>

  <!-- Anchor -->
  <symbol id="anchor" viewBox="0 0 24 24">
    <circle fill="none" stroke="currentColor" stroke-width="2" cx="12" cy="5" r="2"/>
    <path fill="currentColor" d="M12 7V22M12 22L7 17M12 22L17 17M5 12H8M16 12H19"/>
    <path fill="none" stroke="currentColor" stroke-width="2" d="M12 7V22M12 22L7 17M12 22L17 17M5 12H8M16 12H19"/>
  </symbol>

  <!-- ==================== CHARACTER ICONS ==================== -->

  <!-- Beard - Face with beard (for 🧔) -->
  <symbol id="beard" viewBox="0 0 24 24">
    <circle fill="currentColor" cx="12" cy="10" r="8"/>
    <circle fill="url(#nw-orange-glow)" cx="9" cy="9" r="1.5"/>
    <circle fill="url(#nw-orange-glow)" cx="15" cy="9" r="1.5"/>
    <path fill="url(#nw-orange-glow)" d="M12 22C8 22 6 18 6 15C6 15 8 14 12 14C16 14 18 15 18 15C18 18 16 22 12 22Z"/>
    <path fill="currentColor" d="M8 14C8 14 10 13 12 13C14 13 16 14 16 14V16C16 17 14 18 12 18C10 18 8 17 8 16V14Z" opacity="0.5"/>
  </symbol>

  <!-- Hero - Superhero with cape (for 🦸) -->
  <symbol id="hero" viewBox="0 0 24 24">
    <circle fill="currentColor" cx="12" cy="7" r="4"/>
    <path fill="url(#nw-orange-glow)" d="M12 11C8 11 5 14 5 18H19C19 14 16 11 12 11Z"/>
    <path fill="url(#nw-red-glow)" d="M7 11L4 20H6L8 14L7 11Z"/>
    <path fill="url(#nw-red-glow)" d="M17 11L20 20H18L16 14L17 11Z"/>
    <path fill="url(#nw-gold-glow)" d="M10 14H14L13 17H11L10 14Z"/>
  </symbol>

  <!-- Runner - Person running (for 🏃) -->
  <symbol id="runner" viewBox="0 0 24 24">
    <circle fill="currentColor" cx="14" cy="5" r="3"/>
    <path fill="currentColor" d="M7 11L11 9L15 12L12 16L8 22H10L13 17L17 22H19L14 14L17 11L21 12V10L16 9L12 6L6 9V11L7 11Z"/>
    <path fill="url(#nw-orange-glow)" d="M11 9L15 12L12 16" stroke="url(#nw-orange-glow)" stroke-width="1" fill="none"/>
  </symbol>

  <!-- Baby - Cute baby face (for 👶) -->
  <symbol id="baby" viewBox="0 0 24 24">
    <circle fill="currentColor" cx="12" cy="12" r="9"/>
    <circle fill="url(#nw-orange-glow)" cx="9" cy="11" r="1.5"/>
    <circle fill="url(#nw-orange-glow)" cx="15" cy="11" r="1.5"/>
    <path fill="url(#nw-pink-glow)" d="M10 15C10.5 16 11.2 16.5 12 16.5C12.8 16.5 13.5 16 14 15" stroke="url(#nw-pink-glow)" stroke-width="1.5" fill="none" stroke-linecap="round"/>
    <circle fill="url(#nw-pink-glow)" cx="7" cy="13" r="1.5" opacity="0.5"/>
    <circle fill="url(#nw-pink-glow)" cx="17" cy="13" r="1.5" opacity="0.5"/>
    <path fill="currentColor" d="M8 5C9 3 10.5 2.5 12 2.5C13.5 2.5 15 3 16 5" stroke="currentColor" stroke-width="2" fill="none"/>
  </symbol>

  <!-- Squid - Tentacle creature (for 🦑) -->
  <symbol id="squid" viewBox="0 0 24 24">
    <ellipse fill="url(#nw-purple-glow)" cx="12" cy="8" rx="6" ry="5"/>
    <circle fill="#0a0a0f" cx="10" cy="7" r="1.5"/>
    <circle fill="#0a0a0f" cx="14" cy="7" r="1.5"/>
    <circle fill="url(#nw-orange-glow)" cx="10" cy="7" r="0.5"/>
    <circle fill="url(#nw-orange-glow)" cx="14" cy="7" r="0.5"/>
    <path fill="url(#nw-purple-glow)" d="M6 12Q4 16 5 20"/>
    <path fill="url(#nw-purple-glow)" d="M8 12Q7 17 8 21"/>
    <path fill="url(#nw-purple-glow)" d="M10 12Q10 17 10 22"/>
    <path fill="url(#nw-purple-glow)" d="M12 12Q12 17 12 22"/>
    <path fill="url(#nw-purple-glow)" d="M14 12Q14 17 14 22"/>
    <path fill="url(#nw-purple-glow)" d="M16 12Q17 17 16 21"/>
    <path fill="url(#nw-purple-glow)" d="M18 12Q20 16 19 20"/>
    <path fill="none" stroke="url(#nw-purple-glow)" stroke-width="2" stroke-linecap="round" d="M6 12Q4 16 5 20M8 12Q7 17 8 21M10 12Q10 17 10 22M12 12Q12 17 12 22M14 12Q14 17 14 22M16 12Q17 17 16 21M18 12Q20 16 19 20"/>
  </symbol>

  <!-- Circus - Circus tent (for 🎪) -->
  <symbol id="circus" viewBox="0 0 24 24">
    <path fill="url(#nw-red-glow)" d="M12 2L2 18H22L12 2Z"/>
    <path fill="url(#nw-gold-glow)" d="M12 2L7 12H17L12 2Z" opacity="0.5"/>
    <rect fill="url(#nw-orange-glow)" x="4" y="18" width="16" height="4"/>
    <rect fill="currentColor" x="9" y="18" width="6" height="4"/>
    <circle fill="url(#nw-gold-glow)" cx="12" cy="2" r="1"/>
    <path fill="url(#nw-gold-glow)" d="M12 2V6" stroke="url(#nw-gold-glow)" stroke-width="1"/>
  </symbol>

  <!-- Shrug - Person shrugging (for 🤷) -->
  <symbol id="shrug" viewBox="0 0 24 24">
    <circle fill="currentColor" cx="12" cy="6" r="4"/>
    <path fill="currentColor" d="M12 10C9 10 6 12 6 15V18H18V15C18 12 15 10 12 10Z"/>
    <path stroke="currentColor" stroke-width="2" stroke-linecap="round" d="M4 13L2 11M4 13L6 15"/>
    <path stroke="currentColor" stroke-width="2" stroke-linecap="round" d="M20 13L22 11M20 13L18 15"/>
    <circle fill="#0a0a0f" cx="10" cy="6" r="0.8"/>
    <circle fill="#0a0a0f" cx="14" cy="6" r="0.8"/>
    <path fill="none" stroke="#0a0a0f" stroke-width="1" d="M10 8C10.5 8.5 11.2 9 12 9C12.8 9 13.5 8.5 14 8"/>
  </symbol>

  <!-- Nail - Nail polish (for 💅) -->
  <symbol id="nail" viewBox="0 0 24 24">
    <path fill="currentColor" d="M12 4C9 4 7 7 7 11C7 15 9 18 12 18C15 18 17 15 17 11C17 7 15 4 12 4Z"/>
    <path fill="currentColor" d="M10 18H14V22H10V18Z" opacity="0.7"/>
    <ellipse fill="#fff" cx="12" cy="8" rx="2" ry="1.5" opacity="0.3"/>
    <path fill="currentColor" d="M11 2H13V5H11V2Z" opacity="0.7"/>
  </symbol>

  <!-- ==================== ADDITIONAL ICONS ==================== -->

  <!-- Dragon - Boss/Raid (for 🐉) -->
  <symbol id="dragon" viewBox="0 0 24 24">
    <path fill="currentColor" d="M18 3L20 6L18 9L21 7V11L18 14L21 17L17 19L14 17L11 19L8 17L4 19L2 15L5 12L2 9L5 6L8 8L11 5L14 7L17 4L18 3Z"/>
    <circle fill="#ffd700" cx="15" cy="10" r="1.5"/>
    <path fill="currentColor" d="M10 14L8 16L6 14L8 12L10 14Z" opacity="0.6"/>
    <path fill="currentColor" d="M12 17L10 20L8 19L10 16L12 17Z" opacity="0.5"/>
    <path fill="currentColor" d="M16 16L18 19L16 20L14 17L16 16Z" opacity="0.5"/>
  </symbol>

  <!-- Dress/Fashion (for 👗) -->
  <symbol id="dress" viewBox="0 0 24 24">
    <path fill="currentColor" d="M12 2C10 2 9 3 9 4V6L6 10L8 12L6 20H18L16 12L18 10L15 6V4C15 3 14 2 12 2Z"/>
    <path fill="currentColor" d="M9 6L6 10L8 12L10 10L9 6Z" opacity="0.6"/>
    <path fill="currentColor" d="M15 6L18 10L16 12L14 10L15 6Z" opacity="0.6"/>
    <circle fill="#fff" cx="12" cy="8" r="1" opacity="0.5"/>
    <path fill="currentColor" d="M8 14H16L17 18H7L8 14Z" opacity="0.4"/>
  </symbol>

  <!-- Crystal Ball/Fortune (for 🔮) -->
  <symbol id="crystal-ball" viewBox="0 0 24 24">
    <circle fill="currentColor" cx="12" cy="10" r="8"/>
    <ellipse fill="currentColor" cx="12" cy="20" rx="5" ry="2" opacity="0.6"/>
    <path fill="currentColor" d="M7 18H17L15 20H9L7 18Z" opacity="0.7"/>
    <circle fill="#fff" cx="9" cy="8" r="2" opacity="0.3"/>
    <path fill="#fff" d="M10 12L12 10L14 13L11 14L10 12Z" opacity="0.2"/>
    <circle fill="#fff" cx="14" cy="7" r="1" opacity="0.4"/>
  </symbol>

  <!-- Rocket (for 🚀) -->
  <symbol id="rocket" viewBox="0 0 24 24">
    <path fill="currentColor" d="M12 2C12 2 6 8 6 14C6 16 7 18 8 19L10 17V14L12 12L14 14V17L16 19C17 18 18 16 18 14C18 8 12 2 12 2Z"/>
    <circle fill="#0a0a0f" cx="12" cy="10" r="2"/>
    <circle fill="#3b82f6" cx="12" cy="10" r="1"/>
    <path fill="#ff6b00" d="M10 19L8 22L10 21L12 23L14 21L16 22L14 19H10Z"/>
    <path fill="currentColor" d="M4 14L6 12L6 16L4 14Z" opacity="0.6"/>
    <path fill="currentColor" d="M20 14L18 12L18 16L20 14Z" opacity="0.6"/>
  </symbol>

  <!-- Shopping Bag (for 🛍️) -->
  <symbol id="shopping-bag" viewBox="0 0 24 24">
    <path fill="currentColor" d="M6 6H18L20 20H4L6 6Z"/>
    <path fill="none" stroke="currentColor" stroke-width="2" d="M9 6V4C9 2.9 10.3 2 12 2C13.7 2 15 2.9 15 4V6" opacity="0.7"/>
    <rect fill="#fff" x="8" y="10" width="8" height="1" opacity="0.3"/>
    <circle fill="#0a0a0f" cx="10" cy="14" r="1.5" opacity="0.3"/>
    <circle fill="#0a0a0f" cx="14" cy="14" r="1.5" opacity="0.3"/>
  </symbol>

  <!-- Angry/Determined (for 😤) -->
  <symbol id="angry" viewBox="0 0 24 24">
    <circle fill="url(#nw-red-glow)" cx="12" cy="12" r="10"/>
    <path fill="#0a0a0f" d="M7 9L10 10L7 11Z"/>
    <path fill="#0a0a0f" d="M17 9L14 10L17 11Z"/>
    <circle fill="#0a0a0f" cx="9" cy="10" r="1.5"/>
    <circle fill="#0a0a0f" cx="15" cy="10" r="1.5"/>
    <path fill="#0a0a0f" d="M8 15H16L14 17H10L8 15Z"/>
    <path fill="url(#nw-orange-glow)" d="M6 5L8 7M18 5L16 7" stroke="url(#nw-orange-glow)" stroke-width="2" stroke-linecap="round"/>
  </symbol>

  <!-- Cool/Sunglasses (for 😎) -->
  <symbol id="cool" viewBox="0 0 24 24">
    <circle fill="url(#nw-gold-glow)" cx="12" cy="12" r="10"/>
    <rect fill="#0a0a0f" x="5" y="9" width="6" height="4" rx="1"/>
    <rect fill="#0a0a0f" x="13" y="9" width="6" height="4" rx="1"/>
    <path fill="#0a0a0f" d="M11 10H13V11H11V10Z"/>
    <path fill="url(#nw-orange-glow)" d="M9 16C10 17 11 17.5 12 17.5C13 17.5 14 17 15 16" stroke="url(#nw-orange-glow)" stroke-width="1.5" fill="none" stroke-linecap="round"/>
  </symbol>

  <!-- Sloth/Lazy (for 🦥) -->
  <symbol id="sloth" viewBox="0 0 24 24">
    <ellipse fill="currentColor" cx="12" cy="12" rx="9" ry="8"/>
    <circle fill="url(#nw-orange-glow)" cx="9" cy="10" r="2"/>
    <circle fill="url(#nw-orange-glow)" cx="15" cy="10" r="2"/>
    <circle fill="#0a0a0f" cx="9" cy="10" r="0.8"/>
    <circle fill="#0a0a0f" cx="15" cy="10" r="0.8"/>
    <ellipse fill="currentColor" cx="12" cy="14" rx="3" ry="2"/>
    <path fill="url(#nw-orange-glow)" d="M10 15C10.5 15.5 11.2 16 12 16C12.8 16 13.5 15.5 14 15" stroke="url(#nw-orange-glow)" stroke-width="1" fill="none"/>
    <path fill="currentColor" d="M4 8C3 10 3 14 4 16" stroke="currentColor" stroke-width="2" stroke-linecap="round"/>
    <path fill="currentColor" d="M20 8C21 10 21 14 20 16" stroke="currentColor" stroke-width="2" stroke-linecap="round"/>
  </symbol>

  <!-- Diamond/Gem (for 💎) -->
  <symbol id="diamond" viewBox="0 0 24 24">
    <path fill="url(#nw-blue-glow)" d="M12 2L4 9L12 22L20 9L12 2Z"/>
    <path fill="#fff" d="M12 2L8 9H16L12 2Z" opacity="0.3"/>
    <path fill="url(#nw-blue-glow)" d="M4 9L8 9L12 22L4 9Z" opacity="0.7"/>
    <path fill="url(#nw-blue-glow)" d="M20 9L16 9L12 22L20 9Z" opacity="0.5"/>
  </symbol>

  <!-- Chart/Growth (for 📈) -->
  <symbol id="chart" viewBox="0 0 24 24">
    <rect fill="currentColor" x="3" y="3" width="18" height="18" rx="2"/>
    <path fill="none" stroke="#22c55e" stroke-width="2" stroke-linecap="round" d="M6 16L10 12L14 14L18 8"/>
    <circle fill="#22c55e" cx="18" cy="8" r="2"/>
    <path stroke="#22c55e" stroke-width="1.5" fill="none" d="M16 6L18 8L16 10"/>
  </symbol>

  <!-- Meditation/Yoga (for 🧘) -->
  <symbol id="meditation" viewBox="0 0 24 24">
    <circle fill="currentColor" cx="12" cy="6" r="3"/>
    <path fill="currentColor" d="M12 9C10 9 8 10 8 12L5 15H19L16 12C16 10 14 9 12 9Z"/>
    <path fill="url(#nw-purple-glow)" d="M6 17L4 19L6 21L8 19L10 21L12 19L14 21L16 19L18 21L20 19L18 17H6Z"/>
    <circle fill="url(#nw-gold-glow)" cx="12" cy="3" r="1" opacity="0.5"/>
  </symbol>

  <!-- Clown (for 🤡) -->
  <symbol id="clown" viewBox="0 0 24 24">
    <circle fill="currentColor" cx="12" cy="12" r="10"/>
    <circle fill="url(#nw-red-glow)" cx="12" cy="12" r="3"/>
    <circle fill="url(#nw-blue-glow)" cx="8" cy="9" r="2"/>
    <circle fill="url(#nw-blue-glow)" cx="16" cy="9" r="2"/>
    <circle fill="#0a0a0f" cx="8" cy="9" r="0.8"/>
    <circle fill="#0a0a0f" cx="16" cy="9" r="0.8"/>
    <path fill="url(#nw-red-glow)" d="M8 15C9 17 10.5 18 12 18C13.5 18 15 17 16 15" stroke="url(#nw-red-glow)" stroke-width="2" fill="none"/>
    <path fill="url(#nw-green-glow)" d="M5 5L7 7M19 5L17 7" stroke="url(#nw-green-glow)" stroke-width="2"/>
    <path fill="url(#nw-gold-glow)" d="M12 2L11 4H13L12 2Z"/>
  </symbol>

  <!-- Sparkles (for ✨) -->
  <symbol id="sparkles" viewBox="0 0 24 24">
    <path fill="url(#nw-gold-glow)" d="M12 2L13 7L18 8L13 9L12 14L11 9L6 8L11 7L12 2Z"/>
    <path fill="url(#nw-gold-glow)" d="M5 14L6 17L9 18L6 19L5 22L4 19L1 18L4 17L5 14Z"/>
    <path fill="url(#nw-gold-glow)" d="M19 14L20 17L23 18L20 19L19 22L18 19L15 18L18 17L19 14Z"/>
  </symbol>

  <!-- Grimace/Awkward (for 😬) -->
  <symbol id="grimace" viewBox="0 0 24 24">
    <circle fill="url(#nw-gold-glow)" cx="12" cy="12" r="10"/>
    <circle fill="#0a0a0f" cx="8" cy="10" r="1.5"/>
    <circle fill="#0a0a0f" cx="16" cy="10" r="1.5"/>
    <rect fill="#0a0a0f" x="7" y="14" width="10" height="4" rx="1"/>
    <path fill="#fff" d="M8 15V17M10 15V17M12 15V17M14 15V17M16 15V17" stroke="#fff" stroke-width="1"/>
  </symbol>

  <!-- Eye Roll (for 🙄) -->
  <symbol id="eye-roll" viewBox="0 0 24 24">
    <circle fill="url(#nw-gold-glow)" cx="12" cy="12" r="10"/>
    <circle fill="#fff" cx="8" cy="10" r="2.5"/>
    <circle fill="#fff" cx="16" cy="10" r="2.5"/>
    <circle fill="#0a0a0f" cx="8" cy="8" r="1"/>
    <circle fill="#0a0a0f" cx="16" cy="8" r="1"/>
    <path fill="url(#nw-orange-glow)" d="M9 16H15" stroke="url(#nw-orange-glow)" stroke-width="1.5" stroke-linecap="round"/>
  </symbol>

  <!-- ==================== ADDITIONAL UI ICONS ==================== -->

  <!-- Clipboard/Form (for 📋) -->
  <symbol id="form" viewBox="0 0 24 24">
    <rect fill="currentColor" x="4" y="3" width="16" height="18" rx="2"/>
    <rect fill="url(#nw-orange-glow)" x="8" y="1" width="8" height="4" rx="1"/>
    <path fill="url(#nw-orange-glow)" d="M8 9H16M8 13H16M8 17H12" stroke="url(#nw-orange-glow)" stroke-width="1.5" stroke-linecap="round"/>
  </symbol>

  <!-- Magnifier/Search Detective (for 🔍) -->
  <symbol id="detective" viewBox="0 0 24 24">
    <circle fill="none" stroke="currentColor" stroke-width="2.5" cx="10" cy="10" r="6"/>
    <path fill="currentColor" d="M14 14L20 20" stroke="currentColor" stroke-width="3" stroke-linecap="round"/>
    <circle fill="url(#nw-orange-glow)" cx="8" cy="8" r="1"/>
  </symbol>

  <!-- Brain (for 🧠) -->
  <symbol id="brain" viewBox="0 0 24 24">
    <path fill="url(#nw-pink-glow)" d="M12 4C8 4 6 6 6 9C4 9 3 11 3 13C3 15 4 17 6 17C6 19 8 21 10 21H14C16 21 18 19 18 17C20 17 21 15 21 13C21 11 20 9 18 9C18 6 16 4 12 4Z"/>
    <path fill="currentColor" d="M12 6C9 6 8 8 8 10C7 10 6 11 6 13C6 14.5 7 16 8 16C8 18 9 19 11 19H13C15 19 16 18 16 16C17 16 18 14.5 18 13C18 11 17 10 16 10C16 8 15 6 12 6Z"/>
    <path fill="url(#nw-pink-glow)" d="M12 8V16M10 10C9 11 9 13 10 14M14 10C15 11 15 13 14 14" stroke="url(#nw-pink-glow)" stroke-width="1" fill="none"/>
  </symbol>

  <!-- Scroll/Oath (for 📜) -->
  <symbol id="scroll" viewBox="0 0 24 24">
    <path fill="currentColor" d="M5 4C4 4 3 5 3 6V18C3 20 4.5 21 6 21H18C19.5 21 21 20 21 18V6C21 5 20 4 19 4H5Z"/>
    <path fill="url(#nw-gold-glow)" d="M6 3C4.5 3 3 4 3 6C3 8 4.5 9 6 9H18C19.5 9 21 8 21 6C21 4 19.5 3 18 3H6Z"/>
    <path fill="url(#nw-orange-glow)" d="M7 12H17M7 15H15M7 18H12" stroke="url(#nw-orange-glow)" stroke-width="1.5" stroke-linecap="round"/>
  </symbol>

  <!-- Angry Face (for 😤) -->
  <symbol id="angry" viewBox="0 0 24 24">
    <circle fill="url(#nw-red-glow)" cx="12" cy="12" r="10"/>
    <circle fill="#0a0a0f" cx="8" cy="11" r="1.5"/>
    <circle fill="#0a0a0f" cx="16" cy="11" r="1.5"/>
    <path fill="#0a0a0f" d="M6 7L10 9M18 7L14 9" stroke="#0a0a0f" stroke-width="2" stroke-linecap="round"/>
    <path fill="#0a0a0f" d="M8 16C10 14 14 14 16 16" stroke="#0a0a0f" stroke-width="2" fill="none" stroke-linecap="round"/>
    <path fill="url(#nw-orange-glow)" d="M5 5L3 3M19 5L21 3" stroke="url(#nw-orange-glow)" stroke-width="2" stroke-linecap="round"/>
  </symbol>

  <!-- Defense Shield (for ⛊) -->
  <symbol id="defense" viewBox="0 0 24 24">
    <path fill="currentColor" d="M12 2L4 6V12C4 17 7.5 21 12 22C16.5 21 20 17 20 12V6L12 2Z"/>
    <path fill="url(#nw-blue-glow)" d="M12 4L6 7V12C6 15.9 8.6 19.2 12 20C15.4 19.2 18 15.9 18 12V7L12 4Z"/>
    <path fill="currentColor" d="M9 12L11 14L15 10" stroke="currentColor" stroke-width="2" stroke-linecap="round" stroke-linejoin="round"/>
  </symbol>

  <!-- Devil (for 😈) -->
  <symbol id="devil" viewBox="0 0 24 24">
    <circle fill="url(#nw-purple-glow)" cx="12" cy="13" r="9"/>
    <circle fill="#0a0a0f" cx="9" cy="12" r="1.5"/>
    <circle fill="#0a0a0f" cx="15" cy="12" r="1.5"/>
    <path fill="#0a0a0f" d="M9 16C10 17 11 17.5 12 17.5C13 17.5 14 17 15 16" stroke="#0a0a0f" stroke-width="1.5" fill="none"/>
    <path fill="url(#nw-red-glow)" d="M6 6L8 10L4 8L6 6Z"/>
    <path fill="url(#nw-red-glow)" d="M18 6L16 10L20 8L18 6Z"/>
  </symbol>

  <!-- Sunglasses/Cool (for 😎) -->
  <symbol id="cool" viewBox="0 0 24 24">
    <circle fill="url(#nw-gold-glow)" cx="12" cy="12" r="10"/>
    <rect fill="#0a0a0f" x="4" y="9" width="7" height="4" rx="1"/>
    <rect fill="#0a0a0f" x="13" y="9" width="7" height="4" rx="1"/>
    <path fill="#0a0a0f" d="M11 11H13" stroke="#0a0a0f" stroke-width="1"/>
    <path fill="#0a0a0f" d="M9 16C10 17 14 17 15 16" stroke="#0a0a0f" stroke-width="1.5" fill="none"/>
  </symbol>

  <!-- Sloth (for 🦥) -->
  <symbol id="sloth" viewBox="0 0 24 24">
    <ellipse fill="currentColor" cx="12" cy="13" rx="8" ry="7"/>
    <circle fill="url(#nw-orange-glow)" cx="12" cy="12" r="5"/>
    <circle fill="#0a0a0f" cx="10" cy="11" r="0.8"/>
    <circle fill="#0a0a0f" cx="14" cy="11" r="0.8"/>
    <ellipse fill="#0a0a0f" cx="12" cy="14" rx="1.5" ry="1"/>
    <path fill="currentColor" d="M4 8C4 8 5 10 6 10M20 8C20 8 19 10 18 10" stroke="currentColor" stroke-width="2" stroke-linecap="round"/>
  </symbol>

  <!-- Laugh/LOL (for 😂) -->
  <symbol id="laugh" viewBox="0 0 24 24">
    <circle fill="url(#nw-gold-glow)" cx="12" cy="12" r="10"/>
    <path fill="#0a0a0f" d="M6 9C7 8 9 8 10 9M14 9C15 8 17 8 18 9" stroke="#0a0a0f" stroke-width="1.5" stroke-linecap="round"/>
    <path fill="#0a0a0f" d="M8 14C9.5 17 14.5 17 16 14" stroke="#0a0a0f" stroke-width="2" fill="none"/>
    <path fill="url(#nw-blue-glow)" d="M5 11L4 14L6 13L5 11Z"/>
    <path fill="url(#nw-blue-glow)" d="M19 11L20 14L18 13L19 11Z"/>
  </symbol>

  <!-- Party/Celebration (for 🎊) -->
  <symbol id="celebration" viewBox="0 0 24 24">
    <path fill="url(#nw-gold-glow)" d="M12 3L13 6L16 5L14 8L17 10L14 11L15 14L12 12L9 14L10 11L7 10L10 8L8 5L11 6L12 3Z"/>
    <path fill="url(#nw-pink-glow)" d="M4 10L5 12L7 11L6 13L8 14L6 15L7 17L5 16L4 18L3 16L1 17L2 15L0 14L2 13L1 11L3 12L4 10Z"/>
    <path fill="url(#nw-purple-glow)" d="M20 10L19 12L17 11L18 13L16 14L18 15L17 17L19 16L20 18L21 16L23 17L22 15L24 14L22 13L23 11L21 12L20 10Z"/>
    <circle fill="url(#nw-orange-glow)" cx="12" cy="20" r="2"/>
  </symbol>

  <!-- Warning/Alert (for ⚠️) -->
  <symbol id="alert" viewBox="0 0 24 24">
    <path fill="url(#nw-gold-glow)" d="M12 2L2 20H22L12 2Z"/>
    <path fill="#0a0a0f" d="M12 8V14" stroke="#0a0a0f" stroke-width="2.5" stroke-linecap="round"/>
    <circle fill="#0a0a0f" cx="12" cy="17" r="1.5"/>
  </symbol>
</svg>
