<svg viewBox="0 0 32 32" fill="none" xmlns="http://www.w3.org/2000/svg">
  <defs>
    <linearGradient id="nwg-main" x1="0%" y1="0%" x2="100%" y2="100%">
      <stop offset="0%" stop-color="#7dd3fc"/>
      <stop offset="30%" stop-color="#00d4ff"/>
      <stop offset="60%" stop-color="#0284c7"/>
      <stop offset="100%" stop-color="#0369a1"/>
    </linearGradient>
    <linearGradient id="nwg-inner" x1="100%" y1="0%" x2="0%" y2="100%">
      <stop offset="0%" stop-color="#67e8f9"/>
      <stop offset="100%" stop-color="#0891b2"/>
    </linearGradient>
    <linearGradient id="nwg-shine" x1="0%" y1="0%" x2="100%" y2="100%">
      <stop offset="0%" stop-color="#ffffff" stop-opacity="0.9"/>
      <stop offset="50%" stop-color="#ffffff" stop-opacity="0"/>
    </linearGradient>
    <filter id="nwg-glow" x="-50%" y="-50%" width="200%" height="200%">
      <feGaussianBlur in="SourceGraphic" stdDeviation="1.5" result="blur"/>
      <feMerge><feMergeNode in="blur"/><feMergeNode in="SourceGraphic"/></feMerge>
    </filter>
  </defs>
  <!-- Outer hexagon crystal -->
  <polygon points="16,1 28,8 28,24 16,31 4,24 4,8" fill="url(#nwg-main)" filter="url(#nwg-glow)"/>
  <!-- Inner crystal facets -->
  <polygon points="16,4 24,9 24,23 16,28 8,23 8,9" fill="url(#nwg-inner)"/>
  <!-- Crystal lines -->
  <path d="M16 4L16 28M8 9L24 23M24 9L8 23" stroke="#0ea5e9" stroke-width="0.5" opacity="0.6"/>
  <!-- Top shine -->
  <polygon points="16,4 24,9 16,12 8,9" fill="url(#nwg-shine)" opacity="0.7"/>
  <!-- Center emblem - stylized "N" -->
  <path d="M11 12L11 20L13 20L13 15L19 20L21 20L21 12L19 12L19 17L13 12Z" fill="#ffffff" opacity="0.95"/>
  <!-- Sparkle accents -->
  <circle cx="10" cy="7" r="1" fill="#ffffff" opacity="0.8"/>
  <circle cx="22" cy="25" r="0.7" fill="#7dd3fc" opacity="0.6"/>
</svg>
