<svg viewBox="0 0 32 32" fill="none" xmlns="http://www.w3.org/2000/svg">
  <defs>
    <linearGradient id="wood-bark" x1="0%" y1="0%" x2="100%" y2="0%">
      <stop offset="0%" stop-color="#78350f"/>
      <stop offset="30%" stop-color="#451a03"/>
      <stop offset="60%" stop-color="#292524"/>
      <stop offset="100%" stop-color="#1c1917"/>
    </linearGradient>
    <linearGradient id="wood-inner" x1="0%" y1="0%" x2="100%" y2="100%">
      <stop offset="0%" stop-color="#a16207"/>
      <stop offset="50%" stop-color="#78350f"/>
      <stop offset="100%" stop-color="#451a03"/>
    </linearGradient>
    <linearGradient id="rune-glow" x1="0%" y1="0%" x2="100%" y2="100%">
      <stop offset="0%" stop-color="#4ade80"/>
      <stop offset="50%" stop-color="#22c55e"/>
      <stop offset="100%" stop-color="#16a34a"/>
    </linearGradient>
    <filter id="wood-glow" x="-50%" y="-50%" width="200%" height="200%">
      <feGaussianBlur in="SourceGraphic" stdDeviation="1.2" result="blur"/>
      <feMerge><feMergeNode in="blur"/><feMergeNode in="SourceGraphic"/></feMerge>
    </filter>
    <filter id="rune-filter">
      <feGaussianBlur stdDeviation="0.8" result="blur"/>
      <feMerge>
        <feMergeNode in="blur"/>
        <feMergeNode in="blur"/>
        <feMergeNode in="SourceGraphic"/>
      </feMerge>
    </filter>
  </defs>
  <!-- Wood log body - cylindrical shape -->
  <ellipse cx="16" cy="28" rx="10" ry="3" fill="#1c1917"/>
  <rect x="6" y="5" width="20" height="23" fill="url(#wood-bark)"/>
  <ellipse cx="16" cy="5" rx="10" ry="3.5" fill="url(#wood-inner)"/>
  <!-- Wood rings on top -->
  <ellipse cx="16" cy="5" rx="7" ry="2.3" fill="none" stroke="#92400e" stroke-width="0.5" opacity="0.6"/>
  <ellipse cx="16" cy="5" rx="4" ry="1.3" fill="none" stroke="#a16207" stroke-width="0.4" opacity="0.5"/>
  <circle cx="16" cy="5" r="1" fill="#78350f"/>
  <!-- Vertical bark lines -->
  <path d="M9 6L8 26M13 5L12 27M19 5L20 27M24 6L25 26" stroke="#1c1917" stroke-width="0.5" opacity="0.4"/>
  <!-- Sacred rune - glowing emblem -->
  <g filter="url(#rune-filter)">
    <!-- Main rune symbol - ancient tree/life symbol -->
    <path d="M16 10L16 24" stroke="url(#rune-glow)" stroke-width="2" stroke-linecap="round"/>
    <path d="M16 12L11 16L16 14L21 16Z" fill="url(#rune-glow)" opacity="0.9"/>
    <path d="M16 18L12 22L16 20L20 22Z" fill="url(#rune-glow)" opacity="0.8"/>
    <!-- Rune dots -->
    <circle cx="16" cy="10" r="1.5" fill="#4ade80"/>
    <circle cx="11" cy="16" r="1" fill="#22c55e" opacity="0.8"/>
    <circle cx="21" cy="16" r="1" fill="#22c55e" opacity="0.8"/>
  </g>
  <!-- Magical particles -->
  <circle cx="8" cy="12" r="0.8" fill="#4ade80" opacity="0.6">
    <animate attributeName="opacity" values="0.6;0.2;0.6" dur="2s" repeatCount="indefinite"/>
  </circle>
  <circle cx="24" cy="18" r="0.6" fill="#22c55e" opacity="0.5">
    <animate attributeName="opacity" values="0.5;0.1;0.5" dur="2.5s" repeatCount="indefinite"/>
  </circle>
  <circle cx="10" cy="22" r="0.5" fill="#16a34a" opacity="0.4">
    <animate attributeName="opacity" values="0.4;0.1;0.4" dur="1.8s" repeatCount="indefinite"/>
  </circle>
</svg>
